<svg xmlns="http://www.w3.org/2000/svg" width="400" height="400" viewBox="0 0 400 400"><rect width="100%" height="100%" fill="#DDDDDD"/><path fill="#999999" d="M137.35 200.05q0-3.1 1.15-5.9 1.15-2.8 3.15-4.8t4.8-3.2q2.8-1.2 6-1.2t5.95 1.2q2.75 1.2 4.8 3.2t3.25 4.8q1.2 2.8 1.2 5.9 0 3.2-1.2 5.95t-3.25 4.75q-2.05 2-4.8 3.15t-5.95 1.15q-3.2 0-6-1.15t-4.8-3.15q-2-2-3.15-4.75t-1.15-5.95Zm47.5 0q0-3.1 1.15-5.9 1.15-2.8 3.15-4.8t4.8-3.2q2.8-1.2 6-1.2t5.95 1.2q2.75 1.2 4.8 3.2t3.25 4.8q1.2 2.8 1.2 5.9 0 3.2-1.2 5.95t-3.25 4.75q-2.05 2-4.8 3.15t-5.95 1.15q-3.2 0-6-1.15t-4.8-3.15q-2-2-3.15-4.75t-1.15-5.95Zm47.5 0q0-3.1 1.15-5.9 1.15-2.8 3.15-4.8t4.8-3.2q2.8-1.2 6-1.2t5.95 1.2q2.75 1.2 4.8 3.2t3.25 4.8q1.2 2.8 1.2 5.9 0 3.2-1.2 5.95t-3.25 4.75q-2.05 2-4.8 3.15t-5.95 1.15q-3.2 0-6-1.15t-4.8-3.15q-2-2-3.15-4.75t-1.15-5.95Z"/></svg>